<?xml version="1.0" encoding="utf-8"?>
<!-- Generator: Adobe Illustrator 17.0.0, SVG Export Plug-In . SVG Version: 6.00 Build 0)  -->
<!DOCTYPE svg PUBLIC "-//W3C//DTD SVG 1.1//EN" "http://www.w3.org/Graphics/SVG/1.1/DTD/svg11.dtd">
<svg version="1.1" id="Layer_1" xmlns="http://www.w3.org/2000/svg" xmlns:xlink="http://www.w3.org/1999/xlink" x="0px" y="0px"
	 width="160.116px" height="148.386px" viewBox="0 0 160.116 148.386" enable-background="new 0 0 160.116 148.386"
	 xml:space="preserve">
<rect x="0" fill="#009444" width="160.116" height="148.386"/>
<g>
	<path fill="#FFFFFF" d="M93.56,29.365v56.205v7.253h-7.253H73.808v22.849h56.033l30.275,31.977v-31.977V29.365H93.56z
		 M135.439,90.307l-14.126-7.426l-14.125,7.426l2.698-15.729L98.458,63.438l15.793-2.295l7.063-14.311l7.063,14.311l15.793,2.295
		l-11.428,11.139L135.439,90.307z"/>
	<g opacity="0.5">
		<polygon fill="#FFFFFF" points="128.377,61.144 144.169,63.438 132.742,74.578 135.439,90.307 121.314,82.881 121.314,46.833 		
			"/>
	</g>
	<path fill="#FFFFFF" d="M0-0.736v86.307v31.977l30.275-31.977h56.033V-0.736H0z M61.533,68.566l-18.38-9.663l-18.38,9.663
		l3.51-20.466L13.415,33.606l20.549-2.986L43.154,12l9.19,18.621l20.549,2.986L58.023,48.1L61.533,68.566z"/>
</g>
</svg>
