<?xml version="1.0" encoding="utf-8"?>
<!-- Generator: Adobe Illustrator 17.0.0, SVG Export Plug-In . SVG Version: 6.00 Build 0)  -->
<!DOCTYPE svg PUBLIC "-//W3C//DTD SVG 1.1//EN" "http://www.w3.org/Graphics/SVG/1.1/DTD/svg11.dtd">
<svg version="1.1" id="Layer_1" xmlns="http://www.w3.org/2000/svg" xmlns:xlink="http://www.w3.org/1999/xlink" x="0px" y="0px"
	 width="774.756px" height="148.386px" viewBox="0 0 774.756 148.386" enable-background="new 0 0 774.756 148.386"
	 xml:space="preserve">
<g>
	<path fill="#414042" d="M212.133,31.731h18.04v67.865c0,3.805,1.718,5.031,3.191,5.031c0.736,0,1.227,0,2.209-0.245l2.209,13.377
		c-1.964,0.859-5.031,1.473-9.081,1.473c-12.395,0-16.567-8.101-16.567-20.372V31.731z"/>
	<path fill="#414042" d="M245.755,38.481c0-5.522,4.417-9.327,10.431-9.327c6.137,0,10.432,3.805,10.432,9.327
		s-4.296,9.449-10.432,9.449C250.173,47.93,245.755,44.004,245.755,38.481z M247.228,56.889h18.04v60.87h-18.04V56.889z"/>
	<path fill="#414042" d="M281.095,31.731h18.04V52.84l-0.491,9.326c4.664-4.173,10.431-6.749,16.076-6.749
		c14.726,0,23.93,12.15,23.93,30.803c0,20.986-12.518,33.013-25.648,33.013c-5.401,0-11.045-2.7-15.832-7.854h-0.491l-1.473,6.381
		h-14.112V31.731z M308.83,104.505c6.258,0,11.289-5.401,11.289-17.919c0-10.922-3.314-16.444-10.554-16.444
		c-3.682,0-6.995,1.718-10.431,5.522v24.912C302.326,103.523,305.761,104.505,308.83,104.505z"/>
	<path fill="#414042" d="M360.612,96.528c6.26,0,10.923,4.908,10.923,11.413c0,6.381-4.664,11.291-10.923,11.291
		c-6.258,0-10.922-4.91-10.922-11.291C349.691,101.436,354.354,96.528,360.612,96.528z"/>
	<path fill="#414042" d="M386.995,56.889h14.726l1.227,10.677h0.491c4.419-8.224,11.045-12.15,17.305-12.15
		c3.435,0,5.522,0.491,7.24,1.227l-2.946,15.587c-2.209-0.614-4.049-0.982-6.626-0.982c-4.54,0-10.186,2.944-13.377,11.166v35.345
		h-18.04V56.889z"/>
	<path fill="#414042" d="M459.763,55.416c17.305,0,25.894,12.641,25.894,29.208c0,3.191-0.368,6.135-0.736,7.608h-36.448
		c1.594,9.204,7.731,13.255,15.83,13.255c4.542,0,8.715-1.351,13.132-4.051l6.013,10.923c-6.258,4.294-14.359,6.872-21.599,6.872
		c-17.428,0-30.804-11.782-30.804-31.908C431.046,67.566,445.159,55.416,459.763,55.416z M470.317,81.064
		c0-6.994-2.944-11.904-10.186-11.904c-5.644,0-10.554,3.805-11.78,11.904H470.317z"/>
	<path fill="#414042" d="M491.664,58.116h10.431l11.291,33.872c1.718,5.89,3.682,11.904,5.522,17.549h0.491
		c1.718-5.646,3.682-11.659,5.399-17.549l11.291-33.872h9.94l-21.108,59.643h-11.782L491.664,58.116z"/>
	<path fill="#414042" d="M555.719,39.34c0-3.928,3.069-6.504,6.995-6.504c3.928,0,6.995,2.576,6.995,6.504
		c0,3.805-3.067,6.504-6.995,6.504C558.788,45.844,555.719,43.145,555.719,39.34z M557.56,58.116h10.063v59.643H557.56V58.116z"/>
	<path fill="#414042" d="M610.081,56.643c15.217,0,23.807,10.923,23.807,27.982c0,2.085-0.122,4.049-0.368,5.522h-40.253
		c0.737,12.886,8.468,20.984,19.881,20.984c5.646,0,10.432-1.841,14.85-4.664l3.558,6.628c-5.153,3.314-11.536,6.137-19.635,6.137
		c-15.955,0-28.594-11.659-28.594-31.172C583.328,68.548,596.458,56.643,610.081,56.643z M625.052,83.519
		c0-12.15-5.399-18.899-14.726-18.899c-8.345,0-15.953,6.872-17.18,18.899H625.052z"/>
	<path fill="#414042" d="M642.104,58.116h10.307l8.836,34.484c1.35,5.646,2.455,11.046,3.558,16.569h0.491
		c1.35-5.522,2.578-11.046,4.051-16.569l9.204-34.484h9.817l9.327,34.484c1.473,5.646,2.823,11.046,4.173,16.569h0.491
		c1.35-5.522,2.455-10.923,3.682-16.569l8.713-34.484h9.573l-15.955,59.643h-12.271l-8.591-32.031
		c-1.471-5.644-2.576-11.166-4.049-17.18h-0.491c-1.35,6.013-2.576,11.657-4.173,17.303l-8.345,31.908h-11.781L642.104,58.116z"/>
	<path fill="#414042" d="M735.731,104.259c5.155,4.173,10.431,7.119,17.549,7.119c7.854,0,11.78-4.173,11.78-9.327
		c0-6.137-7.117-8.836-13.621-11.291c-8.468-3.067-17.796-7.117-17.796-17.18c0-9.574,7.609-16.937,20.495-16.937
		c7.486,0,13.991,3.069,18.531,6.751l-4.787,6.381c-4.049-3.069-8.345-5.278-13.621-5.278c-7.486,0-10.923,4.051-10.923,8.592
		c0,5.522,6.504,7.731,13.255,10.307c8.59,3.191,18.162,6.751,18.162,18.04c0,9.695-7.731,17.796-21.845,17.796
		c-8.467,0-16.567-3.558-22.211-8.222L735.731,104.259z"/>
</g>
<g>
	<g>
		<polygon fill="#F15A29" points="93.56,30.102 93.56,86.307 93.56,93.56 86.307,93.56 73.808,93.56 73.808,116.409 
			129.841,116.409 160.116,148.386 160.116,116.409 160.116,30.102 		"/>
		<polygon fill="#009444" points="86.307,86.307 86.307,0 0,0 0,86.307 0,118.284 30.275,86.307 		"/>
	</g>
	<g opacity="0.6">
		<polygon fill="#FFFFFF" points="121.314,47.569 128.377,61.88 144.169,64.175 132.742,75.314 135.439,91.043 121.314,83.617 
			107.188,91.043 109.886,75.314 98.458,64.175 114.251,61.88 		"/>
	</g>
	<g>
		<polygon fill="#FFFFFF" points="114.251,61.88 98.458,64.175 109.886,75.314 107.188,91.043 121.314,83.617 121.314,47.569 		"/>
	</g>
	<polygon fill="#FFFFFF" points="43.154,12.736 52.344,31.357 72.893,34.343 58.023,48.837 61.533,69.303 43.154,59.64 
		24.774,69.303 28.284,48.837 13.415,34.343 33.964,31.357 	"/>
</g>
</svg>
