<?xml version="1.0" encoding="utf-8"?>
<!-- Generator: Adobe Illustrator 17.0.0, SVG Export Plug-In . SVG Version: 6.00 Build 0)  -->
<!DOCTYPE svg PUBLIC "-//W3C//DTD SVG 1.1//EN" "http://www.w3.org/Graphics/SVG/1.1/DTD/svg11.dtd">
<svg version="1.1" id="Layer_1" xmlns="http://www.w3.org/2000/svg" xmlns:xlink="http://www.w3.org/1999/xlink" x="0px" y="0px"
	 width="160.116px" height="148.386px" viewBox="0 0 160.116 148.386" enable-background="new 0 0 160.116 148.386"
	 xml:space="preserve">
<g>
	<g>
		<polygon fill="#F15A29" points="93.56,31.39 93.56,87.596 93.56,94.849 86.307,94.849 73.808,94.849 73.808,117.698 
			129.841,117.698 160.116,149.674 160.116,117.698 160.116,31.39 		"/>
		<polygon fill="#009444" points="86.307,87.596 86.307,1.288 0,1.288 0,87.596 0,119.572 30.275,87.596 		"/>
	</g>
	<g opacity="0.6">
		<polygon fill="#FFFFFF" points="121.314,48.858 128.377,63.168 144.169,65.463 132.742,76.603 135.439,92.332 121.314,84.905 
			107.188,92.332 109.886,76.603 98.458,65.463 114.251,63.168 		"/>
	</g>
	<g>
		<polygon fill="#FFFFFF" points="114.251,63.168 98.458,65.463 109.886,76.603 107.188,92.332 121.314,84.905 121.314,48.858 		"/>
	</g>
	<polygon fill="#FFFFFF" points="43.154,14.024 52.344,32.645 72.893,35.631 58.023,50.125 61.533,70.591 43.154,60.928 
		24.774,70.591 28.284,50.125 13.415,35.631 33.964,32.645 	"/>
</g>
</svg>
